# xmcd
#
# Track frame offsets:
#	150
#	21001
#	36335
#	62909
#	90412
#	111187
#	131981
#	153649
#	169878
#	193488
#	217013
#	235186
#	256025
#	276326
#
# Disc length: 4027 seconds
#
# Revision: 0
# Processed by: cddbd v1.5.2PL0 Copyright (c) Steve Scherf et al.
# Submitted via: EasyCDDAExtractor 11.0.2.1
#
DISCID=d20fb90e
DTITLE=Various Artist - Innercity 2002 [CD2]
DYEAR=2002
DGENRE=Electronic
TTITLE0=Psycho Radio - In The Underground (Original Mix)
TTITLE1=Man-To-Man - Magic
TTITLE2=Robbie Rivera - The Hummm Melody
TTITLE3=Bobby Peru - Into The Feeling
TTITLE4=KUT Goldcard and Seishi Ono - The Wrong Party (Crackerz Remix)
TTITLE5=ATFC - Erotik (Wally and Kucho Remix)
TTITLE6=Benjamin Bates - Thin Time (Bates 45 Mix)
TTITLE7=Tomaz vs Filterheadz - Lazy People
TTITLE8=Marco Carola - 9th Question
TTITLE9=Robbie Rivera - Sex (Filterheadz Remix)
TTITLE10=Gaetano Perisio - Ritmatica
TTITLE11=Benjamin Bates - Locked Up (Bates 45 Mix)
TTITLE12=Villanord - Futurescope (Original Mix)
TTITLE13=Taksi - Rohrbruch (Stretched Version)
EXTD=
EXTT0=
EXTT1=
EXTT2=
EXTT3=
EXTT4=
EXTT5=
EXTT6=
EXTT7=
EXTT8=
EXTT9=
EXTT10=
EXTT11=
EXTT12=
EXTT13=
PLAYORDER=
